<mxfile host="app.diagrams.net" modified="2023-06-21T20:01:03.458Z" agent="Mozilla/5.0 (Windows NT 10.0; Win64; x64) AppleWebKit/537.36 (KHTML, like Gecko) Chrome/114.0.0.0 Safari/537.36" etag="MyOdMC8X9KLbhMYxmJXT" version="21.5.0" type="device">
  <diagram name="PÃ¡gina-1" id="ezZ7lonAJ3D66pZzAbyr">
    <mxGraphModel dx="2345" dy="636" grid="1" gridSize="10" guides="1" tooltips="1" connect="1" arrows="1" fold="1" page="1" pageScale="1" pageWidth="827" pageHeight="1169" math="0" shadow="0">
      <root>
        <mxCell id="0" />
        <mxCell id="1" parent="0" />
        <mxCell id="49Bza8QTBs6I_1MEV2yu-22" value="" style="html=1;whiteSpace=wrap;" vertex="1" parent="1">
          <mxGeometry x="304" y="460" width="306" height="130" as="geometry" />
        </mxCell>
        <mxCell id="49Bza8QTBs6I_1MEV2yu-2" value="&lt;h1&gt;&lt;font style=&quot;font-size: 24px;&quot; face=&quot;Comic Sans MS&quot;&gt;PATRON OBSERVER&lt;/font&gt;&lt;/h1&gt;" style="text;html=1;strokeColor=none;fillColor=none;align=center;verticalAlign=middle;whiteSpace=wrap;rounded=0;" vertex="1" parent="1">
          <mxGeometry x="250" y="20" width="311" height="30" as="geometry" />
        </mxCell>
        <mxCell id="49Bza8QTBs6I_1MEV2yu-3" value=":Program" style="shape=umlLifeline;perimeter=lifelinePerimeter;whiteSpace=wrap;html=1;container=1;dropTarget=0;collapsible=0;recursiveResize=0;outlineConnect=0;portConstraint=eastwest;newEdgeStyle={&quot;edgeStyle&quot;:&quot;elbowEdgeStyle&quot;,&quot;elbow&quot;:&quot;vertical&quot;,&quot;curved&quot;:0,&quot;rounded&quot;:0};" vertex="1" parent="1">
          <mxGeometry x="-130" y="80" width="100" height="640" as="geometry" />
        </mxCell>
        <mxCell id="49Bza8QTBs6I_1MEV2yu-5" value="" style="html=1;points=[];perimeter=orthogonalPerimeter;outlineConnect=0;targetShapes=umlLifeline;portConstraint=eastwest;newEdgeStyle={&quot;edgeStyle&quot;:&quot;elbowEdgeStyle&quot;,&quot;elbow&quot;:&quot;vertical&quot;,&quot;curved&quot;:0,&quot;rounded&quot;:0};" vertex="1" parent="49Bza8QTBs6I_1MEV2yu-3">
          <mxGeometry x="45" y="50" width="10" height="540" as="geometry" />
        </mxCell>
        <mxCell id="49Bza8QTBs6I_1MEV2yu-6" value="" style="html=1;points=[];perimeter=orthogonalPerimeter;outlineConnect=0;targetShapes=umlLifeline;portConstraint=eastwest;newEdgeStyle={&quot;edgeStyle&quot;:&quot;elbowEdgeStyle&quot;,&quot;elbow&quot;:&quot;vertical&quot;,&quot;curved&quot;:0,&quot;rounded&quot;:0};" vertex="1" parent="49Bza8QTBs6I_1MEV2yu-3">
          <mxGeometry x="55" y="170" width="10" height="40" as="geometry" />
        </mxCell>
        <mxCell id="49Bza8QTBs6I_1MEV2yu-7" value="2-obtenerFactoria()" style="html=1;align=left;spacingLeft=2;endArrow=block;rounded=0;edgeStyle=orthogonalEdgeStyle;curved=0;rounded=0;" edge="1" target="49Bza8QTBs6I_1MEV2yu-6" parent="49Bza8QTBs6I_1MEV2yu-3">
          <mxGeometry x="0.1765" y="10" relative="1" as="geometry">
            <mxPoint x="60" y="150" as="sourcePoint" />
            <Array as="points">
              <mxPoint x="90" y="180" />
            </Array>
            <mxPoint as="offset" />
          </mxGeometry>
        </mxCell>
        <mxCell id="49Bza8QTBs6I_1MEV2yu-9" value="" style="html=1;points=[];perimeter=orthogonalPerimeter;outlineConnect=0;targetShapes=umlLifeline;portConstraint=eastwest;newEdgeStyle={&quot;edgeStyle&quot;:&quot;elbowEdgeStyle&quot;,&quot;elbow&quot;:&quot;vertical&quot;,&quot;curved&quot;:0,&quot;rounded&quot;:0};" vertex="1" parent="49Bza8QTBs6I_1MEV2yu-3">
          <mxGeometry x="55" y="100" width="10" height="40" as="geometry" />
        </mxCell>
        <mxCell id="49Bza8QTBs6I_1MEV2yu-10" value="&amp;nbsp;1- obtenerFactoria ()" style="html=1;align=left;spacingLeft=2;endArrow=block;rounded=0;edgeStyle=orthogonalEdgeStyle;curved=0;rounded=0;" edge="1" target="49Bza8QTBs6I_1MEV2yu-9" parent="49Bza8QTBs6I_1MEV2yu-3">
          <mxGeometry relative="1" as="geometry">
            <mxPoint x="55" y="70" as="sourcePoint" />
            <Array as="points">
              <mxPoint x="85" y="100" />
            </Array>
            <mxPoint as="offset" />
          </mxGeometry>
        </mxCell>
        <mxCell id="49Bza8QTBs6I_1MEV2yu-4" value=":Doctor" style="shape=umlLifeline;perimeter=lifelinePerimeter;whiteSpace=wrap;html=1;container=1;dropTarget=0;collapsible=0;recursiveResize=0;outlineConnect=0;portConstraint=eastwest;newEdgeStyle={&quot;edgeStyle&quot;:&quot;elbowEdgeStyle&quot;,&quot;elbow&quot;:&quot;vertical&quot;,&quot;curved&quot;:0,&quot;rounded&quot;:0};" vertex="1" parent="1">
          <mxGeometry x="160" y="80" width="100" height="620" as="geometry" />
        </mxCell>
        <mxCell id="49Bza8QTBs6I_1MEV2yu-12" value="" style="html=1;points=[];perimeter=orthogonalPerimeter;outlineConnect=0;targetShapes=umlLifeline;portConstraint=eastwest;newEdgeStyle={&quot;edgeStyle&quot;:&quot;elbowEdgeStyle&quot;,&quot;elbow&quot;:&quot;vertical&quot;,&quot;curved&quot;:0,&quot;rounded&quot;:0};" vertex="1" parent="49Bza8QTBs6I_1MEV2yu-4">
          <mxGeometry x="45" y="50" width="10" height="510" as="geometry" />
        </mxCell>
        <mxCell id="49Bza8QTBs6I_1MEV2yu-8" value="&amp;nbsp; &amp;nbsp; &lt;span style=&quot;white-space: pre;&quot;&gt;&#x9;&lt;/span&gt;&lt;span style=&quot;white-space: pre;&quot;&gt;&#x9;&lt;/span&gt;&lt;span style=&quot;white-space: pre;&quot;&gt;&#x9;&lt;/span&gt;&lt;span style=&quot;white-space: pre;&quot;&gt;&#x9;&lt;/span&gt;&lt;span style=&quot;white-space: pre;&quot;&gt;&#x9;&lt;/span&gt;&lt;font style=&quot;font-size: 8px;&quot;&gt;IObserver doctor = new Doctor(...)&lt;/font&gt;" style="text;html=1;align=center;verticalAlign=middle;resizable=0;points=[];autosize=1;strokeColor=none;fillColor=none;" vertex="1" parent="1">
          <mxGeometry x="-180" y="240" width="280" height="30" as="geometry" />
        </mxCell>
        <mxCell id="49Bza8QTBs6I_1MEV2yu-11" value="&lt;font style=&quot;font-size: 8px;&quot;&gt;Isubject mascota = new Mascota(...)&lt;/font&gt;" style="text;html=1;align=center;verticalAlign=middle;resizable=0;points=[];autosize=1;strokeColor=none;fillColor=none;" vertex="1" parent="1">
          <mxGeometry x="-50" y="160" width="150" height="30" as="geometry" />
        </mxCell>
        <mxCell id="49Bza8QTBs6I_1MEV2yu-13" value="3- agregarSubcripcion(mascota)" style="html=1;verticalAlign=bottom;endArrow=block;edgeStyle=elbowEdgeStyle;elbow=vertical;curved=0;rounded=0;" edge="1" parent="1" target="49Bza8QTBs6I_1MEV2yu-4">
          <mxGeometry width="80" relative="1" as="geometry">
            <mxPoint x="-70" y="320.17" as="sourcePoint" />
            <mxPoint x="10" y="320.17" as="targetPoint" />
          </mxGeometry>
        </mxCell>
        <mxCell id="49Bza8QTBs6I_1MEV2yu-14" value=":Mascota" style="shape=umlLifeline;perimeter=lifelinePerimeter;whiteSpace=wrap;html=1;container=1;dropTarget=0;collapsible=0;recursiveResize=0;outlineConnect=0;portConstraint=eastwest;newEdgeStyle={&quot;edgeStyle&quot;:&quot;elbowEdgeStyle&quot;,&quot;elbow&quot;:&quot;vertical&quot;,&quot;curved&quot;:0,&quot;rounded&quot;:0};" vertex="1" parent="1">
          <mxGeometry x="380" y="80" width="100" height="620" as="geometry" />
        </mxCell>
        <mxCell id="49Bza8QTBs6I_1MEV2yu-15" value="" style="html=1;points=[];perimeter=orthogonalPerimeter;outlineConnect=0;targetShapes=umlLifeline;portConstraint=eastwest;newEdgeStyle={&quot;edgeStyle&quot;:&quot;elbowEdgeStyle&quot;,&quot;elbow&quot;:&quot;vertical&quot;,&quot;curved&quot;:0,&quot;rounded&quot;:0};" vertex="1" parent="49Bza8QTBs6I_1MEV2yu-14">
          <mxGeometry x="45" y="50" width="10" height="550" as="geometry" />
        </mxCell>
        <mxCell id="49Bza8QTBs6I_1MEV2yu-18" value="" style="html=1;points=[];perimeter=orthogonalPerimeter;outlineConnect=0;targetShapes=umlLifeline;portConstraint=eastwest;newEdgeStyle={&quot;edgeStyle&quot;:&quot;elbowEdgeStyle&quot;,&quot;elbow&quot;:&quot;vertical&quot;,&quot;curved&quot;:0,&quot;rounded&quot;:0};" vertex="1" parent="49Bza8QTBs6I_1MEV2yu-14">
          <mxGeometry x="55" y="320" width="10" height="40" as="geometry" />
        </mxCell>
        <mxCell id="49Bza8QTBs6I_1MEV2yu-19" value="5- comer()" style="html=1;align=left;spacingLeft=2;endArrow=block;rounded=0;edgeStyle=orthogonalEdgeStyle;curved=0;rounded=0;" edge="1" target="49Bza8QTBs6I_1MEV2yu-18" parent="49Bza8QTBs6I_1MEV2yu-14">
          <mxGeometry relative="1" as="geometry">
            <mxPoint x="60" y="300" as="sourcePoint" />
            <Array as="points">
              <mxPoint x="90" y="330" />
            </Array>
          </mxGeometry>
        </mxCell>
        <mxCell id="49Bza8QTBs6I_1MEV2yu-29" value="" style="html=1;points=[];perimeter=orthogonalPerimeter;outlineConnect=0;targetShapes=umlLifeline;portConstraint=eastwest;newEdgeStyle={&quot;edgeStyle&quot;:&quot;elbowEdgeStyle&quot;,&quot;elbow&quot;:&quot;vertical&quot;,&quot;curved&quot;:0,&quot;rounded&quot;:0};" vertex="1" parent="49Bza8QTBs6I_1MEV2yu-14">
          <mxGeometry x="55" y="390" width="10" height="40" as="geometry" />
        </mxCell>
        <mxCell id="49Bza8QTBs6I_1MEV2yu-30" value="6- cambiarEstado(Feliz)" style="html=1;align=left;spacingLeft=2;endArrow=block;rounded=0;edgeStyle=orthogonalEdgeStyle;curved=0;rounded=0;" edge="1" target="49Bza8QTBs6I_1MEV2yu-29" parent="49Bza8QTBs6I_1MEV2yu-14" source="49Bza8QTBs6I_1MEV2yu-15">
          <mxGeometry relative="1" as="geometry">
            <mxPoint x="60" y="370" as="sourcePoint" />
            <Array as="points">
              <mxPoint x="90" y="390" />
              <mxPoint x="90" y="400" />
            </Array>
          </mxGeometry>
        </mxCell>
        <mxCell id="49Bza8QTBs6I_1MEV2yu-31" value="" style="html=1;points=[];perimeter=orthogonalPerimeter;outlineConnect=0;targetShapes=umlLifeline;portConstraint=eastwest;newEdgeStyle={&quot;edgeStyle&quot;:&quot;elbowEdgeStyle&quot;,&quot;elbow&quot;:&quot;vertical&quot;,&quot;curved&quot;:0,&quot;rounded&quot;:0};" vertex="1" parent="49Bza8QTBs6I_1MEV2yu-14">
          <mxGeometry x="55" y="470" width="10" height="30" as="geometry" />
        </mxCell>
        <mxCell id="49Bza8QTBs6I_1MEV2yu-32" value="6- cambiarEstado(Enfermo)" style="html=1;align=left;spacingLeft=2;endArrow=block;rounded=0;edgeStyle=orthogonalEdgeStyle;curved=0;rounded=0;" edge="1" target="49Bza8QTBs6I_1MEV2yu-31" parent="49Bza8QTBs6I_1MEV2yu-14" source="49Bza8QTBs6I_1MEV2yu-15">
          <mxGeometry relative="1" as="geometry">
            <mxPoint x="60" y="450" as="sourcePoint" />
            <Array as="points">
              <mxPoint x="90" y="460" />
              <mxPoint x="90" y="485" />
            </Array>
          </mxGeometry>
        </mxCell>
        <mxCell id="49Bza8QTBs6I_1MEV2yu-34" value="" style="html=1;points=[];perimeter=orthogonalPerimeter;outlineConnect=0;targetShapes=umlLifeline;portConstraint=eastwest;newEdgeStyle={&quot;edgeStyle&quot;:&quot;elbowEdgeStyle&quot;,&quot;elbow&quot;:&quot;vertical&quot;,&quot;curved&quot;:0,&quot;rounded&quot;:0};" vertex="1" parent="49Bza8QTBs6I_1MEV2yu-14">
          <mxGeometry x="55" y="540" width="10" height="40" as="geometry" />
        </mxCell>
        <mxCell id="49Bza8QTBs6I_1MEV2yu-35" value="7- notificarObservers()" style="html=1;align=left;spacingLeft=2;endArrow=block;rounded=0;edgeStyle=orthogonalEdgeStyle;curved=0;rounded=0;" edge="1" target="49Bza8QTBs6I_1MEV2yu-34" parent="49Bza8QTBs6I_1MEV2yu-14">
          <mxGeometry x="-0.0587" y="10" relative="1" as="geometry">
            <mxPoint x="60" y="520" as="sourcePoint" />
            <Array as="points">
              <mxPoint x="90" y="550" />
            </Array>
            <mxPoint as="offset" />
          </mxGeometry>
        </mxCell>
        <mxCell id="49Bza8QTBs6I_1MEV2yu-16" value="4- darComer(mascota)" style="html=1;verticalAlign=bottom;endArrow=block;edgeStyle=elbowEdgeStyle;elbow=vertical;curved=0;rounded=0;" edge="1" parent="1">
          <mxGeometry width="80" relative="1" as="geometry">
            <mxPoint x="220" y="360" as="sourcePoint" />
            <mxPoint x="430" y="361" as="targetPoint" />
            <Array as="points">
              <mxPoint x="350" y="360.59" />
            </Array>
          </mxGeometry>
        </mxCell>
        <mxCell id="49Bza8QTBs6I_1MEV2yu-23" value="if else" style="html=1;whiteSpace=wrap;" vertex="1" parent="1">
          <mxGeometry x="304" y="460" width="66" height="10" as="geometry" />
        </mxCell>
        <mxCell id="49Bza8QTBs6I_1MEV2yu-24" value="" style="line;strokeWidth=1;fillColor=none;align=left;verticalAlign=middle;spacingTop=-1;spacingLeft=3;spacingRight=3;rotatable=0;labelPosition=right;points=[];portConstraint=eastwest;strokeColor=inherit;" vertex="1" parent="1">
          <mxGeometry x="304" y="516" width="306" height="8" as="geometry" />
        </mxCell>
        <mxCell id="49Bza8QTBs6I_1MEV2yu-25" value="&lt;font style=&quot;font-size: 6px;&quot;&gt;mascota.estado instanceof Hambriento&lt;/font&gt;" style="text;html=1;align=center;verticalAlign=middle;resizable=0;points=[];autosize=1;strokeColor=none;fillColor=none;" vertex="1" parent="1">
          <mxGeometry x="290" y="460" width="130" height="30" as="geometry" />
        </mxCell>
        <mxCell id="49Bza8QTBs6I_1MEV2yu-26" value="&lt;font style=&quot;font-size: 6px;&quot;&gt;mascota.estado instanceof Feliz&lt;/font&gt;" style="text;html=1;align=center;verticalAlign=middle;resizable=0;points=[];autosize=1;strokeColor=none;fillColor=none;" vertex="1" parent="1">
          <mxGeometry x="300" y="510" width="110" height="30" as="geometry" />
        </mxCell>
      </root>
    </mxGraphModel>
  </diagram>
</mxfile>
